<svg xmlns="http://www.w3.org/2000/svg" xmlns:xlink="http://www.w3.org/1999/xlink" viewBox="0 0 372.65 283.62"><defs><style>.a{isolation:isolate;}.b,.c,.d,.e,.f,.g,.h,.i,.j,.k,.l,.m,.o,.p,.q,.r,.t{fill-rule:evenodd;}.b{fill:url(#a);}.c{fill:url(#b);}.d{fill:url(#c);}.e{fill:url(#d);}.f{fill:url(#e);}.g{fill:url(#f);}.h{fill:url(#g);}.i{fill:url(#h);}.j{fill:url(#i);}.k{fill:url(#j);}.l{fill:url(#k);}.m{opacity:0.7;fill:url(#l);}.n{opacity:0.68;mix-blend-mode:hard-light;}.o{fill:#ff0;}.p{fill:url(#m);}.q{fill:url(#n);}.r{fill:url(#o);}.s{opacity:0.74;}.s,.t{mix-blend-mode:multiply;}.t{fill:url(#p);}</style><linearGradient id="a" x1="270.71" y1="247.58" x2="262.86" y2="230.67" gradientUnits="userSpaceOnUse"><stop offset="0" stop-color="#037a58"/><stop offset="0.05" stop-color="#02744d"/><stop offset="0.14" stop-color="#016b3d"/><stop offset="0.21" stop-color="#006837"/><stop offset="0.46" stop-color="#1c613d"/><stop offset="0.46" stop-color="#1c613d"/><stop offset="0.52" stop-color="#1e6534"/><stop offset="0.59" stop-color="#1e6631"/><stop offset="0.98" stop-color="#1d6131"/></linearGradient><linearGradient id="b" x1="137" y1="220.8" x2="124.33" y2="252.8" xlink:href="#a"/><linearGradient id="c" x1="294.01" y1="228.84" x2="292.8" y2="255.41" xlink:href="#a"/><linearGradient id="d" x1="107.12" y1="230.89" x2="107.72" y2="260.48" xlink:href="#a"/><linearGradient id="e" x1="262.48" y1="293.85" x2="279.39" y2="243.14" gradientUnits="userSpaceOnUse"><stop offset="0" stop-color="#037a58"/><stop offset="0.05" stop-color="#02744d"/><stop offset="0.14" stop-color="#016b3d"/><stop offset="0.21" stop-color="#006837"/><stop offset="0.49" stop-color="#1b613c"/><stop offset="0.5" stop-color="#1c613c"/><stop offset="0.5" stop-color="#1c613b"/><stop offset="0.51" stop-color="#1e6532"/><stop offset="0.53" stop-color="#1e662f"/><stop offset="0.98" stop-color="#1d6131"/></linearGradient><linearGradient id="f" x1="123.24" y1="248.93" x2="135.31" y2="284.55" xlink:href="#e"/><linearGradient id="g" x1="143.95" y1="286.12" x2="256.36" y2="275.98" xlink:href="#e"/><linearGradient id="h" x1="190.11" y1="160.99" x2="260" y2="160.99" gradientTransform="matrix(0.8, -0.27, 0.32, 0.95, -54.09, 53.28)" gradientUnits="userSpaceOnUse"><stop offset="0" stop-color="#e59cc9"/><stop offset="0.46" stop-color="#e196c5"/><stop offset="0.5" stop-color="#db82be"/><stop offset="0.56" stop-color="#d771b9"/><stop offset="0.63" stop-color="#d366b5"/><stop offset="0.73" stop-color="#d25fb3"/><stop offset="1" stop-color="#d15db2"/></linearGradient><linearGradient id="i" x1="264.25" y1="158.92" x2="219.51" y2="149.43" gradientUnits="userSpaceOnUse"><stop offset="0" stop-color="#d15db2"/><stop offset="0.4" stop-color="#d25fb3"/><stop offset="0.54" stop-color="#d366b5"/><stop offset="0.65" stop-color="#d771b9"/><stop offset="0.73" stop-color="#db82be"/><stop offset="0.8" stop-color="#e196c5"/><stop offset="0.84" stop-color="#e49ac8"/><stop offset="1" stop-color="#e59cc9"/></linearGradient><linearGradient id="j" x1="234.73" y1="150.66" x2="302.41" y2="188.18" gradientUnits="userSpaceOnUse"><stop offset="0" stop-color="#e59cc9"/><stop offset="0.55" stop-color="#e196c5"/><stop offset="0.59" stop-color="#db82be"/><stop offset="0.63" stop-color="#d771b9"/><stop offset="0.69" stop-color="#d366b5"/><stop offset="0.77" stop-color="#d25fb3"/><stop offset="1" stop-color="#d15db2"/></linearGradient><linearGradient id="k" x1="111.81" y1="187.65" x2="185.69" y2="151.61" gradientUnits="userSpaceOnUse"><stop offset="0" stop-color="#e59cc9"/><stop offset="0.32" stop-color="#e196c5"/><stop offset="0.36" stop-color="#db82be"/><stop offset="0.42" stop-color="#d771b9"/><stop offset="0.49" stop-color="#d366b5"/><stop offset="0.58" stop-color="#d25fb3"/><stop offset="0.85" stop-color="#d15db2"/></linearGradient><linearGradient id="l" x1="207.91" y1="84.59" x2="207.91" y2="240.39" gradientUnits="userSpaceOnUse"><stop offset="0" stop-color="#e5b5d3" stop-opacity="0"/><stop offset="0.07" stop-color="#e6b6d0" stop-opacity="0.02"/><stop offset="0.15" stop-color="#e7b9c9" stop-opacity="0.08"/><stop offset="0.24" stop-color="#eabfbc" stop-opacity="0.17"/><stop offset="0.34" stop-color="#eec6aa" stop-opacity="0.3"/><stop offset="0.44" stop-color="#f2d094" stop-opacity="0.47"/><stop offset="0.54" stop-color="#f8dc78" stop-opacity="0.67"/><stop offset="0.63" stop-color="#ffe959" stop-opacity="0.9"/></linearGradient><linearGradient id="m" x1="296.18" y1="227.11" x2="257.67" y2="188.6" gradientUnits="userSpaceOnUse"><stop offset="0" stop-color="#d662b1"/><stop offset="1" stop-color="#e07ebc"/></linearGradient><linearGradient id="n" x1="118.1" y1="221.13" x2="147.51" y2="188.42" gradientUnits="userSpaceOnUse"><stop offset="0" stop-color="#c959a9"/><stop offset="0.27" stop-color="#ca5cab"/><stop offset="0.5" stop-color="#cf67b0"/><stop offset="0.72" stop-color="#d678b8"/><stop offset="0.92" stop-color="#e090c3"/><stop offset="1" stop-color="#e59cc9"/></linearGradient><linearGradient id="o" x1="156.82" y1="210.09" x2="244.2" y2="209.5" gradientUnits="userSpaceOnUse"><stop offset="0" stop-color="#c454aa"/><stop offset="0" stop-color="#c555ab"/><stop offset="0.08" stop-color="#d564bb"/><stop offset="0.13" stop-color="#db69c0"/><stop offset="0.27" stop-color="#da6ec1"/><stop offset="0.45" stop-color="#d87dc3"/><stop offset="0.48" stop-color="#d781c3"/><stop offset="0.49" stop-color="#d884c5"/><stop offset="0.54" stop-color="#dd8dc9"/><stop offset="0.61" stop-color="#de90cb"/><stop offset="0.62" stop-color="#de90cb"/><stop offset="1" stop-color="#de8ecb"/></linearGradient><linearGradient id="p" x1="204.12" y1="270.93" x2="204.12" y2="125.27" gradientUnits="userSpaceOnUse"><stop offset="0" stop-color="#470e3f"/><stop offset="0.2" stop-color="#97705b" stop-opacity="0.61"/><stop offset="0.42" stop-color="#d2b870" stop-opacity="0.32"/><stop offset="0.66" stop-color="#f4e37c" stop-opacity="0.15"/><stop offset="1" stop-color="#fff080" stop-opacity="0.1"/></linearGradient></defs><title>logo</title><g class="a"><path class="b" d="M240.1,219.84c-39.88,7.27-57.35,19.63-39,23s57.41,12.51,94.45-4c23.44-10.41,30.6-29,30.6-29S280,212.56,240.1,219.84Z" transform="translate(-14 -38.88)"/><path class="c" d="M95.27,235.85c37.56,15.24,87.06,10.46,105.38,7.11s-25.18-17.57-65.06-24.84-70.24-8-70.24-8S69,225.18,95.27,235.85Z" transform="translate(-14 -38.88)"/><path class="d" d="M293.22,260.93c-51.6,0-93.43-6.58-93.43-14.71s38.57-18,90.17-18,96.69,18,96.69,18S344.82,260.93,293.22,260.93Z" transform="translate(-14 -38.88)"/><path class="e" d="M107.43,231.5c51.6,0,93.44,6.59,93.44,14.72s-48.34,18-99.95,18-86.92-18-86.92-18S55.83,231.5,107.43,231.5Z" transform="translate(-14 -38.88)"/><path class="f" d="M240.1,286.13c-39.88-12.63-57.35-34.09-39-39.9s65.51-.27,105.39,12.36,39,33.4,39,33.4S280,298.77,240.1,286.13Z" transform="translate(-14 -38.88)"/><path class="g" d="M95.27,258.33c39.88-12.64,87.06-18.17,105.38-12.37s-25.18,30.53-65.06,43.16-79.35,2.6-79.35,2.6S55.39,271,95.27,258.33Z" transform="translate(-14 -38.88)"/><path class="h" d="M144.12,278.52c0-21.51,25.3-39,56.5-39s50,17.45,50,39-46.73,44-46.73,44S144.12,300,144.12,278.52Z" transform="translate(-14 -38.88)"/><path class="i" d="M205,146.42c8.48,33.6,11.56,50.94-6.39,57.07S157.08,188,145.89,155.2s-8.54-45.88,12.29-70.61C179.66,103.14,195.61,109,205,146.42Z" transform="translate(-14 -38.88)"/><path class="j" d="M198.61,148.9c-1.88,34.61-14.83,50.8,6.34,59.35s48.84-10.57,61.82-42.7-24.6-73.66-24.6-73.66S200.48,114.53,198.61,148.9Z" transform="translate(-14 -38.88)"/><path class="k" d="M235.61,183.4c-25,44.55-53.25,32.3-36.65,48.9s59.35.78,95.48-35.35,21.81-103.3,21.92-103.4C294.86,126.27,257.53,144.36,235.61,183.4Z" transform="translate(-14 -38.88)"/><path class="l" d="M180.22,184.89c25,44.55,53.25,32.3,36.65,48.91s-59.35.77-95.48-35.36S99.58,95.14,99.47,95.05C121,127.77,158.3,145.85,180.22,184.89Z" transform="translate(-14 -38.88)"/><path class="m" d="M316.36,93.55c-12.53,19.07-30.43,33.17-47.53,49.34-4.17-26.14-26.66-51-26.66-51s-30.63,16.64-40.56,43c-9.66-27.41-24.37-33.88-43.43-50.34-17,20.19-21.89,32.62-17,54.36-15.25-14-30.58-27-41.69-43.9.11.09-14.21,67.26,21.92,103.39,32.06,32.06,69.33,48.13,88.92,39.75,20.46,4.34,54.52-11.63,84.13-41.24C330.57,160.82,316.25,93.65,316.36,93.55ZM194.23,204.43a18.66,18.66,0,0,0,3.32-.61,23.67,23.67,0,0,0,7.4,4.43,28,28,0,0,0,8.87,2,74.57,74.57,0,0,1-7,5.06A75.86,75.86,0,0,1,194.23,204.43Z" transform="translate(-14 -38.88)"/><g class="n"><path class="o" d="M247.46,124.39c.52.14.29,1,.93,1a9.17,9.17,0,0,1-3,1.34C245.54,125.33,247.52,126,247.46,124.39Z" transform="translate(-14 -38.88)"/><path class="o" d="M202.23,127.36c.39.1.46.5,1,.52C202.87,129,200.87,128.08,202.23,127.36Z" transform="translate(-14 -38.88)"/><path class="o" d="M213.65,132.68c1.28-1.84.64,1.64,0,0Z" transform="translate(-14 -38.88)"/><path class="o" d="M233.78,138.37s0-.48,0-.49C236.15,137.57,231.37,140.9,233.78,138.37Z" transform="translate(-14 -38.88)"/><path class="o" d="M235.68,139.42a.49.49,0,0,1,1,0C236.4,140.15,236.22,139.39,235.68,139.42Z" transform="translate(-14 -38.88)"/><path class="o" d="M215.71,141.5c1.67-1.11-1.24,1.57,0,0Z" transform="translate(-14 -38.88)"/><path class="o" d="M237,142.38c1.28-1.84.64,1.64,0,0Z" transform="translate(-14 -38.88)"/><path class="o" d="M196.3,141.66c.77-1.57,1.12,1.94,0,0Z" transform="translate(-14 -38.88)"/><path class="o" d="M219,143.58c1.67-1.11-1.24,1.57,0,0Z" transform="translate(-14 -38.88)"/><path class="o" d="M186,143.66a.49.49,0,0,1,1,0C186.75,144.39,186.57,143.63,186,143.66Z" transform="translate(-14 -38.88)"/><path class="o" d="M200.07,144.24a.49.49,0,0,1,1,0C200.8,145,200.62,144.22,200.07,144.24Z" transform="translate(-14 -38.88)"/><path class="o" d="M170.47,144.47l1,0,0,1-1,0Z" transform="translate(-14 -38.88)"/><path class="o" d="M242.12,147.93a1.33,1.33,0,0,1,.9,1.49A1.33,1.33,0,0,1,242.12,147.93Z" transform="translate(-14 -38.88)"/><path class="o" d="M222.65,149.55c1.67-1.11-1.24,1.57,0,0Z" transform="translate(-14 -38.88)"/><path class="o" d="M231.28,151.85c.1-.57.9-.38,1.48-.43C232.65,152,231.86,151.79,231.28,151.85Z" transform="translate(-14 -38.88)"/><path class="o" d="M164.93,149.57c.77-1.57,1.12,1.94,0,0Z" transform="translate(-14 -38.88)"/><path class="o" d="M192.3,156.05c1.29-1.84.64,1.63,0,0Z" transform="translate(-14 -38.88)"/><path class="o" d="M152.52,156.33a.49.49,0,0,1,1,0C153.24,157.07,153.06,156.31,152.52,156.33Z" transform="translate(-14 -38.88)"/><path class="o" d="M249.8,161.35c.78-1.58,1.13,1.93,0,0Z" transform="translate(-14 -38.88)"/><path class="o" d="M233.32,161.15c1.67-1.11-1.24,1.57,0,0Z" transform="translate(-14 -38.88)"/><path class="o" d="M193.6,160c1.67-1.1-1.24,1.58,0,0Z" transform="translate(-14 -38.88)"/><path class="o" d="M156.76,159.42c.39-.85.88,0,1.45.06C157.82,160.33,157.32,159.51,156.76,159.42Z" transform="translate(-14 -38.88)"/><path class="o" d="M243.91,163a1.34,1.34,0,0,1,.91,1.49A1.34,1.34,0,0,1,243.91,163Z" transform="translate(-14 -38.88)"/><path class="o" d="M246.31,163.63a.49.49,0,0,1,1,0C247,164.36,246.86,163.6,246.31,163.63Z" transform="translate(-14 -38.88)"/><path class="o" d="M158.61,161.44a.49.49,0,0,1,1,0C159.34,162.17,159.16,161.41,158.61,161.44Z" transform="translate(-14 -38.88)"/><path class="o" d="M266.89,170.3c1.29-1.84.64,1.64,0,0Z" transform="translate(-14 -38.88)"/><path class="o" d="M275.57,171.63c.08-.13,1.08-.85,1.47-.42S275.08,172.46,275.57,171.63Z" transform="translate(-14 -38.88)"/><path class="o" d="M186.35,170.83c1.29-1.83.64,1.64,0,0Z" transform="translate(-14 -38.88)"/><path class="o" d="M214.86,173.48c1.67-1.11-1.24,1.57,0,0Z" transform="translate(-14 -38.88)"/><path class="o" d="M154.05,177.74a1.33,1.33,0,0,1,.91,1.49A1.34,1.34,0,0,1,154.05,177.74Z" transform="translate(-14 -38.88)"/><path class="o" d="M208.75,180.5c1.67-1.11-1.24,1.57,0,0Z" transform="translate(-14 -38.88)"/><path class="o" d="M161.28,179c-1.55,1.73-1.57-1.54,0,0Z" transform="translate(-14 -38.88)"/><path class="o" d="M174.83,179.57c.15-.6,1-.45,1,0C175.56,180.31,175.38,179.55,174.83,179.57Z" transform="translate(-14 -38.88)"/><path class="o" d="M253.26,183.32c.1-.57.9-.38,1.47-.43C254.63,183.46,253.83,183.27,253.26,183.32Z" transform="translate(-14 -38.88)"/><path class="o" d="M151.07,179.55c1.28-1.83.64,1.64,0,0Z" transform="translate(-14 -38.88)"/><path class="o" d="M213.47,183.6c.25-1.19,1.88.05,1.41,1C214.25,184.44,214.16,183.75,213.47,183.6Z" transform="translate(-14 -38.88)"/><path class="o" d="M215.89,183.7c.77-1.57,1.13,1.94,0,0Z" transform="translate(-14 -38.88)"/><path class="o" d="M251.72,185.19c.85.39,0,.89-.06,1.46C250.82,186.26,251.63,185.76,251.72,185.19Z" transform="translate(-14 -38.88)"/><path class="o" d="M254.57,186.77c1.28-1.84.64,1.63,0,0Z" transform="translate(-14 -38.88)"/><path class="o" d="M263.24,188.1c1.29-1.84.64,1.63,0,0Z" transform="translate(-14 -38.88)"/><path class="o" d="M166.38,184.56c1.32-1.62,1.07,2.54,0,0Z" transform="translate(-14 -38.88)"/><path class="o" d="M223.94,188.4c.15-.6,1-.44,1,0C224.67,189.14,224.49,188.38,223.94,188.4Z" transform="translate(-14 -38.88)"/><path class="o" d="M273.8,191c.14-.6,1-.45,1,0C274.52,191.7,274.34,190.93,273.8,191Z" transform="translate(-14 -38.88)"/><path class="o" d="M243.21,191.63c.77-1.57,1.13,1.94,0,0Z" transform="translate(-14 -38.88)"/><path class="o" d="M255.28,193.1c1.28-1.84.63,1.64,0,0Z" transform="translate(-14 -38.88)"/><path class="o" d="M146.79,189.08c-1.24,1.54-2.26-1.44,0,0Z" transform="translate(-14 -38.88)"/><path class="o" d="M155.53,189c1.73,1.54-1.54,1.57,0,0Z" transform="translate(-14 -38.88)"/><path class="o" d="M197.13,191.66c1.67-1.11-1.24,1.57,0,0Z" transform="translate(-14 -38.88)"/><path class="o" d="M251.36,193.91c1.67-1.1-1.24,1.58,0,0Z" transform="translate(-14 -38.88)"/><path class="o" d="M193.6,194.9c.12-1.2,1.64-.07,1.94.08C195.16,196.42,194.52,194.48,193.6,194.9Z" transform="translate(-14 -38.88)"/><path class="o" d="M196,195.49a.49.49,0,0,1,1,0C196.73,196.22,196.55,195.46,196,195.49Z" transform="translate(-14 -38.88)"/><path class="o" d="M235.22,197.12c1.67-1.1-1.24,1.57,0,0Z" transform="translate(-14 -38.88)"/><path class="o" d="M238.55,198.71c1.67-1.1-1.24,1.58,0,0Z" transform="translate(-14 -38.88)"/><path class="o" d="M243.88,198.93c.1-.56.9-.37,1.47-.42C245.25,199.07,244.45,198.88,243.88,198.93Z" transform="translate(-14 -38.88)"/><path class="o" d="M213.78,199.62c.1-.56.9-.37,1.47-.42C215.15,199.76,214.35,199.57,213.78,199.62Z" transform="translate(-14 -38.88)"/><path class="o" d="M230.24,200.31c.1-.57.9-.37,1.47-.43C231.61,200.45,230.81,200.25,230.24,200.31Z" transform="translate(-14 -38.88)"/><path class="o" d="M210.83,200.47c.1-.56.9-.37,1.47-.42C212.2,200.61,211.4,200.42,210.83,200.47Z" transform="translate(-14 -38.88)"/><path class="o" d="M227.29,201.16c.78-1.58,1.13,1.93,0,0Z" transform="translate(-14 -38.88)"/><path class="o" d="M250.47,203.57c.85.39,0,.89-.06,1.46C249.57,204.64,250.38,204.14,250.47,203.57Z" transform="translate(-14 -38.88)"/><path class="o" d="M193.3,202.17c.77-1.58,1.12,1.94,0,0Z" transform="translate(-14 -38.88)"/><path class="o" d="M252.39,204.14a1.33,1.33,0,0,1,.91,1.49A1.33,1.33,0,0,1,252.39,204.14Z" transform="translate(-14 -38.88)"/><path class="o" d="M165.68,201.5c.84.16,1.07.88.89,2A2.12,2.12,0,0,1,165.68,201.5Z" transform="translate(-14 -38.88)"/><path class="o" d="M245.55,205.31c.77-1.58,1.13,1.94,0,0Z" transform="translate(-14 -38.88)"/><path class="o" d="M219.34,205.68c.78-1.58,1.13,1.93,0,0Z" transform="translate(-14 -38.88)"/><path class="o" d="M147.18,203.16c.1-.56.9-.37,1.47-.42C148.55,203.3,147.75,203.11,147.18,203.16Z" transform="translate(-14 -38.88)"/><path class="o" d="M207.68,206.16c.39-.85.89,0,1.46.06C208.74,207.07,208.25,206.25,207.68,206.16Z" transform="translate(-14 -38.88)"/><path class="o" d="M237.2,207.87c1.28-1.84.64,1.64,0,0Z" transform="translate(-14 -38.88)"/><path class="o" d="M241.58,207.57c.85.39,0,.88-.06,1.45C240.67,208.63,241.48,208.14,241.58,207.57Z" transform="translate(-14 -38.88)"/><path class="o" d="M265.26,209.52a1.34,1.34,0,0,1,.91,1.5A1.34,1.34,0,0,1,265.26,209.52Z" transform="translate(-14 -38.88)"/><path class="o" d="M198.91,207.25c.84.15,1.07.88.88,2A2.15,2.15,0,0,1,198.91,207.25Z" transform="translate(-14 -38.88)"/><path class="o" d="M225,208.82s0-.48,0-.48C227.4,208,222.63,211.35,225,208.82Z" transform="translate(-14 -38.88)"/><path class="o" d="M255.06,210.07c.14-.6,1-.45,1,0C255.78,210.8,255.6,210,255.06,210.07Z" transform="translate(-14 -38.88)"/><path class="o" d="M196.47,207.63c1-.12,1.51.17,1.41,1l-1.45-.06Z" transform="translate(-14 -38.88)"/><path class="o" d="M262.78,210.88c.1-.57.9-.38,1.48-.43C264.15,211,263.36,210.82,262.78,210.88Z" transform="translate(-14 -38.88)"/><path class="o" d="M254,212a.49.49,0,0,1,1,0C254.73,212.7,254.55,211.94,254,212Z" transform="translate(-14 -38.88)"/><path class="o" d="M223.44,212.15c.77-1.58,1.13,1.94,0,0Z" transform="translate(-14 -38.88)"/><path class="o" d="M224.29,215.1c.77-1.58,1.12,1.93,0,0Z" transform="translate(-14 -38.88)"/><path class="o" d="M171.47,213.87c.77-1.57,1.13,1.94,0,0Z" transform="translate(-14 -38.88)"/><path class="o" d="M191.26,216.15c-1.24,1.54-2.26-1.44,0,0Z" transform="translate(-14 -38.88)"/><path class="o" d="M213.05,217.05c.18-.65,1.23-.35,2-.4,0,.47-.61.35-1,.44-.11.41.17.47.46.51C213.94,219.18,213.55,217,213.05,217.05Z" transform="translate(-14 -38.88)"/><path class="o" d="M170.9,215.79c1.68-1.1-1.23,1.57,0,0Z" transform="translate(-14 -38.88)"/><path class="o" d="M176.23,216c-1.24,1.54-2.26-1.44,0,0Z" transform="translate(-14 -38.88)"/><path class="o" d="M169.41,216.7c1.73,1.54-1.54,1.57,0,0Z" transform="translate(-14 -38.88)"/><path class="o" d="M182,217.7a.49.49,0,0,1,1,0C182.71,218.44,182.53,217.68,182,217.7Z" transform="translate(-14 -38.88)"/><path class="o" d="M233.71,221.79a.49.49,0,0,1,1,0C234.43,222.53,234.26,221.77,233.71,221.79Z" transform="translate(-14 -38.88)"/><path class="o" d="M182.34,220.63c1.4.48.52.75.41,2C182.1,222.41,182.4,221.36,182.34,220.63Z" transform="translate(-14 -38.88)"/><path class="o" d="M176.84,224.76c1.28-1.83.64,1.64,0,0Z" transform="translate(-14 -38.88)"/><path class="o" d="M178.29,224.83c.1-.57.9-.38,1.47-.43C179.66,225,178.86,224.77,178.29,224.83Z" transform="translate(-14 -38.88)"/><path class="o" d="M221.59,233.42c.77-1.58,1.12,1.93,0,0Z" transform="translate(-14 -38.88)"/><path class="o" d="M171.57,234.73c.77-1.57,1.13,1.94,0,0Z" transform="translate(-14 -38.88)"/><path class="o" d="M221.11,128.14c.33-1.39.73.78,1.43.55C222,130.27,221.61,128.1,221.11,128.14Z" transform="translate(-14 -38.88)"/><path class="o" d="M199,134.5c1.21,1.06-1.33,1.92-.14,3.39-.63-.2-.73-.89-1.41-1C198.31,136.43,198.59,135.38,199,134.5Z" transform="translate(-14 -38.88)"/><path class="o" d="M221.19,137.85c-.93-1.27,1.13,1,1.4,1.51C221.69,141,221.57,138.18,221.19,137.85Z" transform="translate(-14 -38.88)"/><path class="o" d="M175.38,143.22c1.57-.24,1.86,3.14,0,0Z" transform="translate(-14 -38.88)"/><path class="o" d="M242.52,149.89c1.71,1.09-1,1.52-1.07,2.38C240.09,151.56,242.79,151.08,242.52,149.89Z" transform="translate(-14 -38.88)"/><path class="o" d="M167.27,151.61c.07-.07,1-.88,1.47-.42C169,151.44,165.57,153.17,167.27,151.61Z" transform="translate(-14 -38.88)"/><path class="o" d="M192.93,152.68c.22-1.8,1.14,1.47,0,1C192,154.75,192.94,153.47,192.93,152.68Z" transform="translate(-14 -38.88)"/><path class="o" d="M159.74,157.6c.11-.41-.17-.46-.46-.5,1.16-1.37.89.65.42,1.47l-1,0c.11-.41-.17-.46-.46-.5C158.37,157.46,159.17,157.66,159.74,157.6Z" transform="translate(-14 -38.88)"/><path class="o" d="M261.35,175.41c-1.4-.76,1.14-.33.44,1C261.38,177.26,261.28,176.08,261.35,175.41Z" transform="translate(-14 -38.88)"/><path class="o" d="M242.26,179.46c1.39.33-.77.73-.54,1.44C240.13,180.36,242.3,180,242.26,179.46Z" transform="translate(-14 -38.88)"/><path class="o" d="M268.21,185.39c.21-1.79,1.14,1.48,0,1C267.31,187.47,268.22,186.19,268.21,185.39Z" transform="translate(-14 -38.88)"/><path class="o" d="M268.61,187.35c.18-1.14,1.27.61,1.92.56C270,189.38,269.26,187.31,268.61,187.35Z" transform="translate(-14 -38.88)"/><path class="o" d="M249.32,196.25c.71.24-.21.61-.06,1.45-.42-.31-.84-.62-1,0C246.49,196.76,249.38,196.91,249.32,196.25Z" transform="translate(-14 -38.88)"/><path class="o" d="M237.52,211.77c.87-.11-.05,1.88-1,1.41C236.27,212.09,237.45,212.53,237.52,211.77Z" transform="translate(-14 -38.88)"/><path class="o" d="M203.12,210.82c1.91.23-.42,1.48.89,2C203.68,213.58,201.22,211,203.12,210.82Z" transform="translate(-14 -38.88)"/><path class="o" d="M185,216.37c1-.22.94,1.93.46.51C184.38,217.38,184.36,217.36,185,216.37Z" transform="translate(-14 -38.88)"/></g><g class="n"><path class="o" d="M155.12,218.52c-.42-.33.12-1-.45-1.29a8.84,8.84,0,0,1,3.25,0C157.26,218.42,155.69,217,155.12,218.52Z" transform="translate(-14 -38.88)"/><path class="o" d="M197.8,233.81c-.32-.26-.23-.65-.67-.86C197.87,232,199.33,233.68,197.8,233.81Z" transform="translate(-14 -38.88)"/><path class="o" d="M189.44,224.38c-1.91,1.17.06-1.76,0,0Z" transform="translate(-14 -38.88)"/><path class="o" d="M173.23,211.14s-.17.45-.21.44C170.75,210.93,176.45,209.78,173.23,211.14Z" transform="translate(-14 -38.88)"/><path class="o" d="M171.91,209.42c-.37.5-1.08,0-.87-.42C171.54,208.46,171.4,209.23,171.91,209.42Z" transform="translate(-14 -38.88)"/><path class="o" d="M191.06,215.47c-2,.34,1.76-.95,0,0Z" transform="translate(-14 -38.88)"/><path class="o" d="M171.87,206.17c-1.91,1.18.06-1.75,0,0Z" transform="translate(-14 -38.88)"/><path class="o" d="M208.93,223.05c-1.34,1.13-.26-2.23,0,0Z" transform="translate(-14 -38.88)"/><path class="o" d="M188.85,212.25c-2,.34,1.77-1,0,0Z" transform="translate(-14 -38.88)"/><path class="o" d="M219.15,225.3a.49.49,0,0,1-.88-.42C218.77,224.34,218.64,225.11,219.15,225.3Z" transform="translate(-14 -38.88)"/><path class="o" d="M206.5,219.18c-.38.49-1.08,0-.87-.43C206.13,218.21,206,219,206.5,219.18Z" transform="translate(-14 -38.88)"/><path class="o" d="M233.74,230.75l-.87-.42.42-.87.87.42Z" transform="translate(-14 -38.88)"/><path class="o" d="M169.4,199.05a1.32,1.32,0,0,1-.24-1.73A1.35,1.35,0,0,1,169.4,199.05Z" transform="translate(-14 -38.88)"/><path class="o" d="M187.9,205.32c-2,.35,1.76-.95,0,0Z" transform="translate(-14 -38.88)"/><path class="o" d="M180.89,199.77c-.31.48-1,0-1.52-.19C179.69,199.1,180.35,199.59,180.89,199.77Z" transform="translate(-14 -38.88)"/><path class="o" d="M240.86,228.28c-1.34,1.14-.26-2.23,0,0Z" transform="translate(-14 -38.88)"/><path class="o" d="M218.32,211.44c-1.91,1.18.07-1.75,0,0Z" transform="translate(-14 -38.88)"/><path class="o" d="M254.93,227c-.37.49-1.08,0-.87-.43C254.56,226.05,254.42,226.82,254.93,227Z" transform="translate(-14 -38.88)"/><path class="o" d="M167.68,183.68c-1.33,1.14-.26-2.22,0,0Z" transform="translate(-14 -38.88)"/><path class="o" d="M182.73,190.43c-2,.35,1.76-1,0,0Z" transform="translate(-14 -38.88)"/><path class="o" d="M218.7,207.32c-2,.34,1.77-1,0,0Z" transform="translate(-14 -38.88)"/><path class="o" d="M252.27,222.5c-.69.62-.82-.32-1.3-.64C251.66,221.24,251.79,222.19,252.27,222.5Z" transform="translate(-14 -38.88)"/><path class="o" d="M173.76,184.47a1.34,1.34,0,0,1-.23-1.73A1.34,1.34,0,0,1,173.76,184.47Z" transform="translate(-14 -38.88)"/><path class="o" d="M171.79,183c-.37.5-1.08,0-.87-.42C171.42,182,171.28,182.79,171.79,183Z" transform="translate(-14 -38.88)"/><path class="o" d="M251.37,219.91c-.37.5-1.08,0-.87-.42C251,219,250.86,219.72,251.37,219.91Z" transform="translate(-14 -38.88)"/><path class="o" d="M155.57,168.66c-1.91,1.18.07-1.75,0,0Z" transform="translate(-14 -38.88)"/><path class="o" d="M148.15,164c-.13.09-1.33.35-1.52-.2S148.93,163.42,148.15,164Z" transform="translate(-14 -38.88)"/><path class="o" d="M229.67,200.24c-1.91,1.18.06-1.75,0,0Z" transform="translate(-14 -38.88)"/><path class="o" d="M204.57,186.47c-2,.35,1.76-.95,0,0Z" transform="translate(-14 -38.88)"/><path class="o" d="M262.05,206.77a1.32,1.32,0,0,1-.24-1.73A1.35,1.35,0,0,1,262.05,206.77Z" transform="translate(-14 -38.88)"/><path class="o" d="M213,182.46c-2,.35,1.76-1,0,0Z" transform="translate(-14 -38.88)"/><path class="o" d="M255.93,202.73c2.1-1,.82,2,0,0Z" transform="translate(-14 -38.88)"/><path class="o" d="M243.71,196.81c-.37.5-1.08,0-.87-.42C243.34,195.85,243.2,196.62,243.71,196.81Z" transform="translate(-14 -38.88)"/><path class="o" d="M173.27,162.16c-.32.47-1,0-1.52-.2C172.06,161.48,172.72,162,173.27,162.16Z" transform="translate(-14 -38.88)"/><path class="o" d="M265.51,206.29c-1.91,1.18.06-1.75,0,0Z" transform="translate(-14 -38.88)"/><path class="o" d="M209.88,177.73c-.71,1-1.71-.79-.89-1.5C209.49,176.66,209.3,177.33,209.88,177.73Z" transform="translate(-14 -38.88)"/><path class="o" d="M207.7,176.68c-1.34,1.13-.27-2.23,0,0Z" transform="translate(-14 -38.88)"/><path class="o" d="M175.42,161c-.62-.69.32-.82.63-1.3C176.67,160.43,175.73,160.56,175.42,161Z" transform="translate(-14 -38.88)"/><path class="o" d="M173.44,158.47c-1.91,1.17.06-1.75,0,0Z" transform="translate(-14 -38.88)"/><path class="o" d="M166,153.79c-1.91,1.18.06-1.75,0,0Z" transform="translate(-14 -38.88)"/><path class="o" d="M253.45,195.61c-1.85.95,0-2.76,0,0Z" transform="translate(-14 -38.88)"/><path class="o" d="M202.18,169.16c-.37.5-1.08,0-.87-.42C201.81,168.2,201.67,169,202.18,169.16Z" transform="translate(-14 -38.88)"/><path class="o" d="M157.47,147c-.38.49-1.08,0-.87-.43C157.1,146,157,146.77,157.47,147Z" transform="translate(-14 -38.88)"/><path class="o" d="M185.79,158.53c-1.33,1.14-.26-2.23,0,0Z" transform="translate(-14 -38.88)"/><path class="o" d="M175.31,152.38c-1.91,1.17.06-1.76,0,0Z" transform="translate(-14 -38.88)"/><path class="o" d="M273.22,199.26c1.75-.92,1.5,2.22,0,0Z" transform="translate(-14 -38.88)"/><path class="o" d="M265.16,195.89c-1-2.1,2-.82,0,0Z" transform="translate(-14 -38.88)"/><path class="o" d="M228.07,176.85c-2,.35,1.76-.95,0,0Z" transform="translate(-14 -38.88)"/><path class="o" d="M179.22,153.19c-2,.35,1.76-.95,0,0Z" transform="translate(-14 -38.88)"/><path class="o" d="M232.6,175.28c-.59,1.05-1.53-.59-1.74-.85C231.78,173.27,231.59,175.3,232.6,175.28Z" transform="translate(-14 -38.88)"/><path class="o" d="M230.63,173.79c-.37.49-1.08,0-.87-.43C230.26,172.82,230.12,173.59,230.63,173.79Z" transform="translate(-14 -38.88)"/><path class="o" d="M195.3,156.68c-2,.34,1.77-1,0,0Z" transform="translate(-14 -38.88)"/><path class="o" d="M192.89,153.89c-2,.34,1.76-.95,0,0Z" transform="translate(-14 -38.88)"/><path class="o" d="M188.09,151.57c-.32.47-1,0-1.52-.2C186.89,150.89,187.54,151.38,188.09,151.57Z" transform="translate(-14 -38.88)"/><path class="o" d="M216,162.92c-.31.47-1,0-1.51-.2C214.77,162.24,215.43,162.74,216,162.92Z" transform="translate(-14 -38.88)"/><path class="o" d="M201.14,155.74c-.31.47-1,0-1.51-.2C199.94,155.06,200.6,155.55,201.14,155.74Z" transform="translate(-14 -38.88)"/><path class="o" d="M219,163.31c-.31.48-1,0-1.52-.2C217.81,162.64,218.47,163.13,219,163.31Z" transform="translate(-14 -38.88)"/><path class="o" d="M204.18,156.13c-1.33,1.14-.26-2.23,0,0Z" transform="translate(-14 -38.88)"/><path class="o" d="M183.88,144.68c-.62-.69.32-.82.64-1.31C185.14,144.07,184.19,144.2,183.88,144.68Z" transform="translate(-14 -38.88)"/><path class="o" d="M235.77,168.74c-1.33,1.13-.26-2.23,0,0Z" transform="translate(-14 -38.88)"/><path class="o" d="M182.35,143.4a1.32,1.32,0,0,1-.24-1.73A1.34,1.34,0,0,1,182.35,143.4Z" transform="translate(-14 -38.88)"/><path class="o" d="M260.84,180.34c-.71-.48-.63-1.23,0-2.17A2.14,2.14,0,0,1,260.84,180.34Z" transform="translate(-14 -38.88)"/><path class="o" d="M189.09,145.05c-1.34,1.14-.26-2.23,0,0Z" transform="translate(-14 -38.88)"/><path class="o" d="M213.28,155.15c-1.34,1.14-.27-2.23,0,0Z" transform="translate(-14 -38.88)"/><path class="o" d="M278.48,186.19c-.32.47-1,0-1.52-.2C277.27,185.51,277.93,186,278.48,186.19Z" transform="translate(-14 -38.88)"/><path class="o" d="M224.17,159.35c-.7.62-.83-.33-1.31-.64C223.55,158.09,223.68,159,224.17,159.35Z" transform="translate(-14 -38.88)"/><path class="o" d="M197.77,146c-1.91,1.18.07-1.75,0,0Z" transform="translate(-14 -38.88)"/><path class="o" d="M193.63,144.56c-.62-.7.33-.83.64-1.31C194.89,144,194,144.07,193.63,144.56Z" transform="translate(-14 -38.88)"/><path class="o" d="M172.68,133.34a1.35,1.35,0,0,1-.23-1.74A1.35,1.35,0,0,1,172.68,133.34Z" transform="translate(-14 -38.88)"/><path class="o" d="M232.65,161.84c-.72-.48-.63-1.23,0-2.17A2.14,2.14,0,0,1,232.65,161.84Z" transform="translate(-14 -38.88)"/><path class="o" d="M209.31,150s-.18.44-.21.43C206.82,149.79,212.53,148.63,209.31,150Z" transform="translate(-14 -38.88)"/><path class="o" d="M182.27,136.9a.49.49,0,0,1-.88-.42C181.89,135.94,181.76,136.71,182.27,136.9Z" transform="translate(-14 -38.88)"/><path class="o" d="M235,162.46c-.94-.28-1.32-.75-.88-1.51l1.31.64Z" transform="translate(-14 -38.88)"/><path class="o" d="M175.5,133.08c-.32.48-1,0-1.52-.19C174.3,132.41,175,132.9,175.5,133.08Z" transform="translate(-14 -38.88)"/><path class="o" d="M184,135.58c-.37.49-1.08,0-.87-.43C183.61,134.61,183.47,135.38,184,135.58Z" transform="translate(-14 -38.88)"/><path class="o" d="M212.1,147.58c-1.34,1.13-.27-2.23,0,0Z" transform="translate(-14 -38.88)"/><path class="o" d="M212.49,144.54c-1.33,1.13-.26-2.23,0,0Z" transform="translate(-14 -38.88)"/><path class="o" d="M260.46,166.69c-1.34,1.14-.27-2.23,0,0Z" transform="translate(-14 -38.88)"/><path class="o" d="M243.21,156.72c1.75-.92,1.49,2.22,0,0Z" transform="translate(-14 -38.88)"/><path class="o" d="M223.58,147.22c-.42.52-1.27-.17-2-.41.22-.42.7-.08,1.09,0,.26-.33,0-.49-.23-.64C223.61,144.91,223.11,147.05,223.58,147.22Z" transform="translate(-14 -38.88)"/><path class="o" d="M261.74,165.16c-2,.34,1.76-1,0,0Z" transform="translate(-14 -38.88)"/><path class="o" d="M256.94,162.83c1.75-.92,1.5,2.23,0,0Z" transform="translate(-14 -38.88)"/><path class="o" d="M263.47,164.92c-1-2.1,2-.83,0,0Z" transform="translate(-14 -38.88)"/><path class="o" d="M252.34,159c-.37.5-1.08,0-.87-.42C252,158,251.83,158.8,252.34,159Z" transform="translate(-14 -38.88)"/><path class="o" d="M206.51,134.64c-.37.5-1.08,0-.87-.42C206.14,133.68,206,134.45,206.51,134.64Z" transform="translate(-14 -38.88)"/><path class="o" d="M253.17,156.16c-1.08-1-.17-.89.41-1.95C254.11,154.63,253.41,155.47,253.17,156.16Z" transform="translate(-14 -38.88)"/><path class="o" d="M259.87,154.56c-1.91,1.18.06-1.75,0,0Z" transform="translate(-14 -38.88)"/><path class="o" d="M258.56,153.93c-.32.47-1,0-1.52-.2C257.36,153.25,258,153.75,258.56,153.93Z" transform="translate(-14 -38.88)"/><path class="o" d="M222.26,128.81c-1.33,1.14-.26-2.23,0,0Z" transform="translate(-14 -38.88)"/><path class="o" d="M268.67,147.51c-1.34,1.14-.26-2.22,0,0Z" transform="translate(-14 -38.88)"/><path class="o" d="M180.79,225.57c-.86,1.14-.36-1-1.1-1.07C180.81,223.26,180.31,225.4,180.79,225.57Z" transform="translate(-14 -38.88)"/><path class="o" d="M203.58,228.53c-.69-1.45,2-1.23,1.48-3.05.5.43.31,1.1.89,1.5C205,227,204.33,227.89,203.58,228.53Z" transform="translate(-14 -38.88)"/><path class="o" d="M184.57,216.63c.36,1.53-.64-1.34-.67-1.94C185.39,213.52,184.36,216.17,184.57,216.63Z" transform="translate(-14 -38.88)"/><path class="o" d="M228.74,230c-1.53-.41-.45-3.62,0,0Z" transform="translate(-14 -38.88)"/><path class="o" d="M169.81,197.1c-1.14-1.68,1.54-1,1.92-1.76C172.7,196.53,170,195.89,169.81,197.1Z" transform="translate(-14 -38.88)"/><path class="o" d="M239.52,225.48c-.1,0-1.31.38-1.52-.2C237.89,225,241.7,224.72,239.52,225.48Z" transform="translate(-14 -38.88)"/><path class="o" d="M216.41,214.28c-.92,1.56-.47-1.81.42-.87C218.05,212.74,216.71,213.55,216.41,214.28Z" transform="translate(-14 -38.88)"/><path class="o" d="M248.81,223c-.26.33,0,.49.23.64-1.61.8-.56-1,.19-1.52l.88.43c-.26.33,0,.49.22.64C250,223.65,249.36,223.16,248.81,223Z" transform="translate(-14 -38.88)"/><path class="o" d="M162.7,166.19c1,1.25-1.18-.16,0-1.08C163.41,164.47,163,165.6,162.7,166.19Z" transform="translate(-14 -38.88)"/><path class="o" d="M181.82,170.07c-1.15-.86,1-.36,1.07-1.1C184.13,170.1,182,169.6,181.82,170.07Z" transform="translate(-14 -38.88)"/><path class="o" d="M160.38,154.3c-.92,1.56-.46-1.81.42-.87C162,152.75,160.68,153.57,160.38,154.3Z" transform="translate(-14 -38.88)"/><path class="o" d="M160.79,152.34c-.62,1-.93-1.06-1.54-1.28C160.33,149.93,160.17,152.13,160.79,152.34Z" transform="translate(-14 -38.88)"/><path class="o" d="M182,151.86c-.55-.51.44-.48.64-1.31.25.46.52.9.87.42C184.82,152.52,182.23,151.23,182,151.86Z" transform="translate(-14 -38.88)"/><path class="o" d="M199,142.32c-.84-.24.8-1.7,1.51-.88C200.3,142.52,199.4,141.65,199,142.32Z" transform="translate(-14 -38.88)"/><path class="o" d="M230.2,156.89c-1.65-1,1-1.2,0-2.17C230.79,154.13,232,157.48,230.2,156.89Z" transform="translate(-14 -38.88)"/><path class="o" d="M249.09,159c-1-.21-.1-2.15-.23-.65C250,158.33,250,158.36,249.09,159Z" transform="translate(-14 -38.88)"/></g><g class="n"><path class="o" d="M195.65,172.51c-.53.13-.73-.72-1.31-.43a9.09,9.09,0,0,1,1.94-2.61C196.86,170.74,194.82,171.15,195.65,172.51Z" transform="translate(-14 -38.88)"/><path class="o" d="M233.68,147.84c-.39.09-.65-.22-1.09,0C232.31,146.71,234.51,146.54,233.68,147.84Z" transform="translate(-14 -38.88)"/><path class="o" d="M221.11,148.76c-.22,2.23-1.35-1.11,0,0Z" transform="translate(-14 -38.88)"/><path class="o" d="M200.76,153.63s.25.41.22.43C199.09,155.48,201.63,150.24,200.76,153.63Z" transform="translate(-14 -38.88)"/><path class="o" d="M198.59,153.64c.17.6-.64.87-.86.43C197.6,153.35,198.13,153.93,198.59,153.64Z" transform="translate(-14 -38.88)"/><path class="o" d="M215,142.07c-.92,1.78.31-2,0,0Z" transform="translate(-14 -38.88)"/><path class="o" d="M196,151.7c-.22,2.23-1.35-1.12,0,0Z" transform="translate(-14 -38.88)"/><path class="o" d="M231.87,132.46c.1,1.75-1.93-1.14,0,0Z" transform="translate(-14 -38.88)"/><path class="o" d="M211.11,141.87c-.92,1.78.31-2,0,0Z" transform="translate(-14 -38.88)"/><path class="o" d="M239.86,125.7a.49.49,0,0,1-.87.44C238.87,125.41,239.4,126,239.86,125.7Z" transform="translate(-14 -38.88)"/><path class="o" d="M227.32,132.05a.49.49,0,0,1-.87.43C226.33,131.76,226.86,132.34,227.32,132.05Z" transform="translate(-14 -38.88)"/><path class="o" d="M253,117.4l-.86.44-.44-.86.86-.44Z" transform="translate(-14 -38.88)"/><path class="o" d="M188.82,149.35a1.34,1.34,0,0,1-1.52-.86A1.33,1.33,0,0,1,188.82,149.35Z" transform="translate(-14 -38.88)"/><path class="o" d="M205,138.44c-.92,1.77.32-2,0,0Z" transform="translate(-14 -38.88)"/><path class="o" d="M196.37,140.64c.18.55-.61.77-1.08,1.09C195.1,141.19,195.89,141,196.37,140.64Z" transform="translate(-14 -38.88)"/><path class="o" d="M255.39,110.24c.1,1.75-1.93-1.14,0,0Z" transform="translate(-14 -38.88)"/><path class="o" d="M228.34,118c-.23,2.23-1.36-1.11,0,0Z" transform="translate(-14 -38.88)"/><path class="o" d="M262.92,98.29c.17.59-.64.87-.86.43C261.93,98,262.46,98.57,262.92,98.29Z" transform="translate(-14 -38.88)"/><path class="o" d="M175.56,141.39c.1,1.75-1.93-1.14,0,0Z" transform="translate(-14 -38.88)"/><path class="o" d="M190.05,133.52c-.93,1.78.31-2,0,0Z" transform="translate(-14 -38.88)"/><path class="o" d="M225.29,115.15c-.92,1.78.31-2,0,0Z" transform="translate(-14 -38.88)"/><path class="o" d="M257.72,97.66c.07.93-.76.46-1.3.66C256.35,97.39,257.17,97.86,257.72,97.66Z" transform="translate(-14 -38.88)"/><path class="o" d="M179.88,137a1.34,1.34,0,0,1-1.52-.86A1.34,1.34,0,0,1,179.88,137Z" transform="translate(-14 -38.88)"/><path class="o" d="M177.5,137.7c.16.6-.64.87-.87.44C176.5,137.41,177,138,177.5,137.7Z" transform="translate(-14 -38.88)"/><path class="o" d="M255.11,96.8c.17.6-.64.88-.86.44C254.12,96.52,254.65,97.09,255.11,96.8Z" transform="translate(-14 -38.88)"/><path class="o" d="M156.28,141.91c-.23,2.24-1.36-1.11,0,0Z" transform="translate(-14 -38.88)"/><path class="o" d="M148.05,145c0,.15-.52,1.27-1.08,1.09S148.08,144,148.05,145Z" transform="translate(-14 -38.88)"/><path class="o" d="M226.31,102.14c-.22,2.23-1.35-1.11,0,0Z" transform="translate(-14 -38.88)"/><path class="o" d="M200.14,113.75c-.92,1.78.31-2,0,0Z" transform="translate(-14 -38.88)"/><path class="o" d="M251.13,80.35a1.34,1.34,0,0,1-1.52-.86A1.34,1.34,0,0,1,251.13,80.35Z" transform="translate(-14 -38.88)"/><path class="o" d="M202.05,104.64c-.92,1.78.31-2,0,0Z" transform="translate(-14 -38.88)"/><path class="o" d="M244.21,82.77c.5-2.26,2.12.57,0,0Z" transform="translate(-14 -38.88)"/><path class="o" d="M232.1,88.89c.17.6-.64.87-.86.44C231.11,88.61,231.64,89.18,232.1,88.89Z" transform="translate(-14 -38.88)"/><path class="o" d="M161.83,123.9c.18.54-.61.76-1.08,1.09C160.56,124.45,161.35,124.22,161.83,123.9Z" transform="translate(-14 -38.88)"/><path class="o" d="M252.85,77.31c-.22,2.23-1.35-1.11,0,0Z" transform="translate(-14 -38.88)"/><path class="o" d="M196.41,104.23c.37,1.17-1.66.88-1.73-.21C195.32,103.89,195.74,104.44,196.41,104.23Z" transform="translate(-14 -38.88)"/><path class="o" d="M194.25,105.33c.09,1.75-1.93-1.15,0,0Z" transform="translate(-14 -38.88)"/><path class="o" d="M162.25,121.51c-.93.08-.46-.75-.66-1.29C162.52,120.14,162.05,121,162.25,121.51Z" transform="translate(-14 -38.88)"/><path class="o" d="M159,121.53c-.23,2.23-1.36-1.12,0,0Z" transform="translate(-14 -38.88)"/><path class="o" d="M150.78,124.6c-.23,2.23-1.36-1.11,0,0Z" transform="translate(-14 -38.88)"/><path class="o" d="M237.05,80.42c-.37,2-2.17-1.7,0,0Z" transform="translate(-14 -38.88)"/><path class="o" d="M184.93,105.15a.49.49,0,0,1-.87.44C183.94,104.86,184.47,105.44,184.93,105.15Z" transform="translate(-14 -38.88)"/><path class="o" d="M140.17,127.25a.49.49,0,0,1-.87.44C139.18,127,139.71,127.54,140.17,127.25Z" transform="translate(-14 -38.88)"/><path class="o" d="M166.54,111.74c.09,1.75-1.93-1.14,0,0Z" transform="translate(-14 -38.88)"/><path class="o" d="M155.29,116.34c-.22,2.24-1.36-1.11,0,0Z" transform="translate(-14 -38.88)"/><path class="o" d="M251.94,66.91c.33-2,2.67.16,0,0Z" transform="translate(-14 -38.88)"/><path class="o" d="M244.37,71.28c-2.26-.5.58-2.12,0,0Z" transform="translate(-14 -38.88)"/><path class="o" d="M206.75,89.23c-.93,1.78.31-2,0,0Z" transform="translate(-14 -38.88)"/><path class="o" d="M158.31,113.73c-.92,1.78.31-2,0,0Z" transform="translate(-14 -38.88)"/><path class="o" d="M208.24,84.67c.48,1.11-1.4.87-1.73.87C206.14,84.11,207.64,85.49,208.24,84.67Z" transform="translate(-14 -38.88)"/><path class="o" d="M205.86,85.33c.17.6-.64.87-.86.44C204.87,85,205.4,85.62,205.86,85.33Z" transform="translate(-14 -38.88)"/><path class="o" d="M170.83,103.05c-.92,1.78.31-2,0,0Z" transform="translate(-14 -38.88)"/><path class="o" d="M167.15,103.29c-.92,1.77.31-2,0,0Z" transform="translate(-14 -38.88)"/><path class="o" d="M162.39,105.69c.19.54-.6.77-1.08,1.09C161.13,106.24,161.92,106,162.39,105.69Z" transform="translate(-14 -38.88)"/><path class="o" d="M188.33,90.4c.18.54-.61.76-1.08,1.09C187.06,90.94,187.85,90.72,188.33,90.4Z" transform="translate(-14 -38.88)"/><path class="o" d="M173.63,97.84c.18.54-.61.76-1.08,1.08C172.36,98.38,173.15,98.16,173.63,97.84Z" transform="translate(-14 -38.88)"/><path class="o" d="M190.49,88.22c.18.54-.61.76-1.08,1.09C189.22,88.77,190,88.55,190.49,88.22Z" transform="translate(-14 -38.88)"/><path class="o" d="M175.78,95.66c.1,1.75-1.93-1.14,0,0Z" transform="translate(-14 -38.88)"/><path class="o" d="M154.37,104.86c-.93.07-.46-.75-.66-1.3C154.64,103.49,154.17,104.32,154.37,104.86Z" transform="translate(-14 -38.88)"/><path class="o" d="M205,78.18c.09,1.76-1.93-1.14,0,0Z" transform="translate(-14 -38.88)"/><path class="o" d="M152.42,105.3a1.33,1.33,0,0,1-1.52-.86A1.34,1.34,0,0,1,152.42,105.3Z" transform="translate(-14 -38.88)"/><path class="o" d="M229.39,65.28c-.81.28-1.36-.24-1.74-1.29C228.37,64,228.92,64.51,229.39,65.28Z" transform="translate(-14 -38.88)"/><path class="o" d="M157.82,100.94c.09,1.76-1.93-1.14,0,0Z" transform="translate(-14 -38.88)"/><path class="o" d="M180.51,87.83c.1,1.76-1.93-1.14,0,0Z" transform="translate(-14 -38.88)"/><path class="o" d="M244.73,54.81c.19.54-.6.76-1.08,1.09C243.46,55.35,244.25,55.13,244.73,54.81Z" transform="translate(-14 -38.88)"/><path class="o" d="M190.46,81.72c.07.93-.76.46-1.3.66C189.09,81.45,189.91,81.92,190.46,81.72Z" transform="translate(-14 -38.88)"/><path class="o" d="M163.86,94.63c-.23,2.23-1.36-1.11,0,0Z" transform="translate(-14 -38.88)"/><path class="o" d="M160.18,97c-.93.07-.46-.75-.65-1.3C160.46,95.66,160,96.49,160.18,97Z" transform="translate(-14 -38.88)"/><path class="o" d="M138.56,106.89A1.36,1.36,0,0,1,137,106,1.34,1.34,0,0,1,138.56,106.89Z" transform="translate(-14 -38.88)"/><path class="o" d="M197.58,76.48c-.81.29-1.36-.24-1.74-1.29C196.57,75.18,197.12,75.71,197.58,76.48Z" transform="translate(-14 -38.88)"/><path class="o" d="M174,87.86s.25.42.22.44C172.34,89.71,174.88,84.48,174,87.86Z" transform="translate(-14 -38.88)"/><path class="o" d="M147.2,101.43c.17.6-.64.87-.86.43C146.21,101.14,146.74,101.72,147.2,101.43Z" transform="translate(-14 -38.88)"/><path class="o" d="M199.53,75c-.8.58-1.4.59-1.74-.21l1.3-.66Z" transform="translate(-14 -38.88)"/><path class="o" d="M140.06,104.49c.19.55-.6.77-1.08,1.09C138.8,105,139.59,104.82,140.06,104.49Z" transform="translate(-14 -38.88)"/><path class="o" d="M147.19,99.26a.49.49,0,0,1-.87.44C146.2,99,146.73,99.55,147.19,99.26Z" transform="translate(-14 -38.88)"/><path class="o" d="M173.78,84.18c.09,1.75-1.93-1.14,0,0Z" transform="translate(-14 -38.88)"/><path class="o" d="M171.6,82c.09,1.76-1.93-1.14,0,0Z" transform="translate(-14 -38.88)"/><path class="o" d="M218.3,57.31c.09,1.76-1.93-1.14,0,0Z" transform="translate(-14 -38.88)"/><path class="o" d="M199.91,65c.33-1.95,2.68.15,0,0Z" transform="translate(-14 -38.88)"/><path class="o" d="M180.45,74.83c.17.66-.9.91-1.51,1.31-.2-.43.36-.61.65-.87-.11-.41-.38-.33-.65-.22C178.63,73.41,180,75.1,180.45,74.83Z" transform="translate(-14 -38.88)"/><path class="o" d="M217.86,55.37c-.92,1.77.31-2,0,0Z" transform="translate(-14 -38.88)"/><path class="o" d="M213.1,57.77c.33-2,2.67.16,0,0Z" transform="translate(-14 -38.88)"/><path class="o" d="M218.72,53.84c-2.26-.5.57-2.12,0,0Z" transform="translate(-14 -38.88)"/><path class="o" d="M207.25,59.1a.49.49,0,0,1-.86.44C206.26,58.81,206.79,59.39,207.25,59.1Z" transform="translate(-14 -38.88)"/><path class="o" d="M160.11,80.78a.49.49,0,0,1-.87.43C159.12,80.49,159.65,81.07,160.11,80.78Z" transform="translate(-14 -38.88)"/><path class="o" d="M205.51,56.72c-1.45.26-.81-.4-1.31-1.51C204.86,55.05,205.11,56.11,205.51,56.72Z" transform="translate(-14 -38.88)"/><path class="o" d="M208.3,50.43c-.23,2.23-1.36-1.12,0,0Z" transform="translate(-14 -38.88)"/><path class="o" d="M207,51.08c.19.54-.6.77-1.08,1.09C205.74,51.63,206.53,51.41,207,51.08Z" transform="translate(-14 -38.88)"/><path class="o" d="M165,64.72c.09,1.75-1.93-1.15,0,0Z" transform="translate(-14 -38.88)"/><path class="o" d="M208,39.16c.09,1.75-1.93-1.15,0,0Z" transform="translate(-14 -38.88)"/><path class="o" d="M216.81,156.37c.39,1.37-1-.32-1.51.22C215,155,216.4,156.64,216.81,156.37Z" transform="translate(-14 -38.88)"/><path class="o" d="M233,140c-1.57-.34.23-2.33-1.53-3,.64-.13,1.07.42,1.73.21C232.67,138,232.93,139.06,233,140Z" transform="translate(-14 -38.88)"/><path class="o" d="M212,147.94c1.43.65-1.45-.3-1.95-.64C210,145.41,211.51,147.83,212,147.94Z" transform="translate(-14 -38.88)"/><path class="o" d="M249.37,120.89c-1.25,1-3.15-1.83,0,0Z" transform="translate(-14 -38.88)"/><path class="o" d="M187.51,147.84c-2-.12.16-1.83-.23-2.6C188.81,145.19,186.69,146.92,187.51,147.84Z" transform="translate(-14 -38.88)"/><path class="o" d="M252.35,109.61c0,.1-.49,1.28-1.07,1.08C251,110.59,253.07,107.42,252.35,109.61Z" transform="translate(-14 -38.88)"/><path class="o" d="M229.44,121.2c.68,1.67-1.72-.73-.44-.87C229.2,119,229,120.51,229.44,121.2Z" transform="translate(-14 -38.88)"/><path class="o" d="M256,100.7c.1.41.37.32.65.22-.35,1.76-1.1-.14-1.09-1.08l.87-.44c.1.41.37.32.65.21C257.26,100.16,256.47,100.38,256,100.7Z" transform="translate(-14 -38.88)"/><path class="o" d="M158.63,134.75c1.59,0-.84.84-.87-.64C157.69,133.15,158.35,134.13,158.63,134.75Z" transform="translate(-14 -38.88)"/><path class="o" d="M173.3,121.9c-1.37.39.33-1-.22-1.52C174.73,120.08,173,121.48,173.3,121.9Z" transform="translate(-14 -38.88)"/><path class="o" d="M147.76,129.38c.69,1.68-1.72-.73-.43-.86C147.53,127.14,147.37,128.7,147.76,129.38Z" transform="translate(-14 -38.88)"/><path class="o" d="M146.46,127.87c.39,1.09-1.41.09-2,.45C144.26,126.77,145.91,128.23,146.46,127.87Z" transform="translate(-14 -38.88)"/><path class="o" d="M159,110.69c-.74.14-.11-.64-.66-1.3.52.08,1,.14.87-.43C161.17,108.86,158.58,110.14,159,110.69Z" transform="translate(-14 -38.88)"/><path class="o" d="M161.67,91.39c-.7.52-.87-1.66.21-1.74C162.61,90.49,161.37,90.69,161.67,91.39Z" transform="translate(-14 -38.88)"/><path class="o" d="M192.16,75.43c-1.78.72-.36-1.5-1.74-1.3C190.32,73.29,193.73,74.34,192.16,75.43Z" transform="translate(-14 -38.88)"/><path class="o" d="M205.32,61.71c-.79.69-1.77-1.22-.65-.21C205.32,60.56,205.35,60.57,205.32,61.71Z" transform="translate(-14 -38.88)"/></g><path class="p" d="M172,254c12.9,24.52,60,16.26,108.73-19.31s73.93-117.17,64.95-108.82C308.43,160.48,159.1,229.48,172,254Z" transform="translate(-14 -38.88)"/><path class="q" d="M222.28,253c-10.9,21-55.9,11.87-100.5-20.33s-60.59-80.34-61-96.29C95,167.39,233.19,232,222.28,253Z" transform="translate(-14 -38.88)"/><path class="r" d="M243.91,209.8c0,33.76-19.56,61.13-43.69,61.13s-43.69-27.37-43.69-61.13,43.69-61.13,43.69-61.13S243.91,176,243.91,209.8Z" transform="translate(-14 -38.88)"/><g class="s"><path class="t" d="M345.68,125.87c-18.54,17.22-64.83,43-105.08,67.5-10.18-25.78-40.38-44.7-40.38-44.7s-34.06,21.34-42,49.59c-37.39-22.6-80.33-46.44-97.42-61.93.42,15.95,16.41,64.08,61,96.29,18.8,13.57,37.66,23,54,27.86,7,6.6,15.38,10.45,24.43,10.45a33.17,33.17,0,0,0,17.32-5c18.58-4.25,40.7-14.83,63.19-31.23C329.5,199.11,354.66,117.52,345.68,125.87Z" transform="translate(-14 -38.88)"/></g></g></svg>